HIERARCHY
ROOT Hips
{
 OFFSET 0.000000 0.000000 0.000000
 CHANNELS 6 Xposition Yposition Zposition Yrotation Xrotation Zrotation
 JOINT Chest
 {
  OFFSET 0.000000 9.588913 -0.003946
  CHANNELS 3 Yrotation Xrotation Zrotation
  JOINT Chest2
  {
   OFFSET 0.000000 9.541882 0.008053
   CHANNELS 3 Yrotation Xrotation Zrotation
   JOINT Chest3
   {
    OFFSET 0.000000 9.501360 0.000000
    CHANNELS 3 Yrotation Xrotation Zrotation
    JOINT Chest4
    {
     OFFSET 0.000000 9.491660 0.000000
     CHANNELS 3 Yrotation Xrotation Zrotation
     JOINT Neck
     {
      OFFSET 0.000000 14.331917 0.000000
      CHANNELS 3 Yrotation Xrotation Zrotation
      JOINT Head
      {
       OFFSET 0.000000 8.884799 0.017034
       CHANNELS 3 Yrotation Xrotation Zrotation
       End Site
       {
        OFFSET 0.000000 16.896195 0.008993
       }
      }
     }
     JOINT RightCollar
     {
      OFFSET -2.923010 9.499495 0.000000
      CHANNELS 3 Yrotation Xrotation Zrotation
      JOINT RightShoulder
      {
       OFFSET -13.795216 0.000000 0.000000
       CHANNELS 3 Yrotation Xrotation Zrotation
       JOINT RightElbow
       {
        OFFSET -30.272209 0.000000 0.000000
        CHANNELS 3 Yrotation Xrotation Zrotation
        JOINT RightWrist
        {
         OFFSET -24.478199 0.000000 0.000000
         CHANNELS 3 Yrotation Xrotation Zrotation
         End Site
         {
          OFFSET -18.090752 0.000000 0.000000
         }
        }
       }
      }
     }
     JOINT LeftCollar
     {
      OFFSET 2.923010 9.499495 0.000000
      CHANNELS 3 Yrotation Xrotation Zrotation
      JOINT LeftShoulder
      {
       OFFSET 13.795216 0.000000 0.000000
       CHANNELS 3 Yrotation Xrotation Zrotation
       JOINT LeftElbow
       {
        OFFSET 30.272209 0.000000 0.000000
        CHANNELS 3 Yrotation Xrotation Zrotation
        JOINT LeftWrist
        {
         OFFSET 24.478199 0.000000 0.000000
         CHANNELS 3 Yrotation Xrotation Zrotation
         End Site
         {
          OFFSET 18.090752 0.000000 0.000000
         }
        }
       }
      }
     }
    }
   }
  }
 }
 JOINT RightHip
 {
  OFFSET -7.826875 0.019532 0.001973
  CHANNELS 3 Yrotation Xrotation Zrotation
  JOINT RightKnee
  {
   OFFSET 0.000000 -40.546152 -0.001885
   CHANNELS 3 Yrotation Xrotation Zrotation
   JOINT RightAnkle
   {
    OFFSET 0.000000 -39.417092 -0.003189
    CHANNELS 3 Yrotation Xrotation Zrotation
    JOINT RightToe
    {
     OFFSET 0.000000 -7.579396 17.243563
     CHANNELS 3 Yrotation Xrotation Zrotation
     End Site
     {
      OFFSET 0.000000 -1.500329 6.694466
     }
    }
   }
  }
 }
 JOINT LeftHip
 {
  OFFSET 7.826875 0.019532 0.001973
  CHANNELS 3 Yrotation Xrotation Zrotation
  JOINT LeftKnee
  {
   OFFSET 0.000000 -40.546152 -0.001885
   CHANNELS 3 Yrotation Xrotation Zrotation
   JOINT LeftAnkle
   {
    OFFSET 0.000000 -39.417092 -0.003189
    CHANNELS 3 Yrotation Xrotation Zrotation
    JOINT LeftToe
    {
     OFFSET 0.000000 -7.579396 17.243563
     CHANNELS 3 Yrotation Xrotation Zrotation
     End Site
     {
      OFFSET 0.000000 -1.500329 6.694466
     }
    }
   }
  }
 }
}
MOTION
Frames: 5
Frame Time: 0.008333
0.000000 87.345680 0.000000 0.000000 -5.767889 0.000000 0.000000 11.653876 0.000000 0.000000 -5.885988 0.000000 0.000000 -0.000000 0.000000 0.000000 -0.000000 0.000000 0.000000 12.528808 0.000000 0.000000 0.711711 0.000000 0.000000 -0.000000 0.000000 0.000000 -0.000000 0.000000 2.309063 -0.000000 0.000000 -2.309063 -0.000000 -0.000000 0.000000 -0.000000 0.000000 0.000000 0.000000 0.000000 -2.309063 0.000000 0.000000 2.309063 -0.000000 0.000000 0.000000 8.520374 0.000000 0.000000 1.905768 0.000000 -0.000000 -4.658254 0.000000 0.000000 -0.000000 0.000000 0.000000 8.520374 0.000000 0.000000 1.905768 0.000000 -0.000000 -4.658254 0.000000 0.000000 -0.000000 0.000000
24.500979 88.706446 4.285409 -39.362659 -7.213808 0.426742 1.605245 4.414253 -0.286762 0.933649 2.533733 -0.202760 1.165943 3.167658 -0.247049 0.933648 2.533738 -0.202760 -6.508006 17.787351 -0.550703 -11.801040 -2.566448 1.126979 -0.898319 2.867978 -0.431901 -6.957371 -7.471737 89.751911 13.153325 -20.206426 5.603066 4.365267 -4.650563 1.316960 -1.967310 1.609512 -1.770503 12.053715 -2.530916 -86.959829 -5.788827 -24.046413 -11.588882 -14.204314 -11.144623 5.599847 -17.433566 5.418452 -17.081365 -3.875620 6.289114 -0.890695 -3.188663 -2.316650 10.669260 -0.073588 1.382967 -0.422493 9.519303 11.912412 6.780575 7.937761 1.938822 0.574006 1.280701 -5.014275 -5.828817 -0.110227 -0.077256 -0.135426
24.324977 88.678688 4.104073 -39.738650 -7.124451 0.448737 1.561906 4.393621 -0.252284 0.908173 2.524809 -0.195209 1.134144 3.156473 -0.237806 0.908171 2.524815 -0.195208 -6.515451 17.704640 -0.653634 -11.785186 -2.728750 0.947560 -0.944621 2.867152 -0.422582 -6.789689 -7.480459 89.857287 13.148696 -19.926323 5.700217 4.390081 -4.613940 1.300130 -1.979797 1.529533 -1.761212 12.084264 -2.586627 -86.885119 -5.976600 -24.112621 -11.920104 -14.338051 -11.165080 5.638024 -17.605572 5.422287 -16.836634 -3.842870 5.882650 -0.901037 -3.001349 -2.370430 10.420156 -0.041179 1.315698 -0.358864 9.745465 11.840177 6.915321 7.939979 1.912690 0.630415 1.357189 -4.986901 -6.021489 -0.084879 -0.103125 -0.127022
24.122639 88.646629 3.896160 -40.109857 -7.029898 0.477535 1.511507 4.376054 -0.223799 0.879758 2.515482 -0.184884 1.098691 3.144777 -0.225115 0.879756 2.515489 -0.184883 -6.503879 17.614660 -0.756604 -11.734448 -2.905671 0.762344 -0.973546 2.859772 -0.413413 -6.626907 -7.484741 89.952509 13.108675 -19.680720 5.786303 4.419647 -4.576509 1.272253 -1.979630 1.452900 -1.771372 12.087588 -2.650128 -86.805682 -6.169027 -24.156738 -12.209357 -14.529474 -11.186161 5.698279 -17.762010 5.415226 -16.608956 -3.734900 5.516329 -0.860691 -2.859574 -2.440221 10.220649 -0.029127 1.239165 -0.367582 9.952840 11.741161 7.062729 7.936302 1.922134 0.690968 1.449462 -4.966719 -6.234235 -0.068156 -0.127577 -0.123001
23.901871 88.611400 3.667899 -40.471626 -6.928311 0.508942 1.455188 4.360113 -0.197109 0.847733 2.506717 -0.171565 1.058745 3.133775 -0.208702 0.847732 2.506724 -0.171565 -6.474977 17.516231 -0.860856 -11.651501 -3.099310 0.569591 -0.982641 2.847348 -0.408628 -6.470463 -7.488550 90.039449 13.046386 -19.470041 5.841818 4.457154 -4.561762 1.233106 -1.976438 1.378295 -1.806994 12.075730 -2.723214 -86.721631 -6.366296 -24.177706 -12.451157 -14.765386 -11.212862 5.771767 -17.871107 5.400209 -16.405916 -3.528126 5.193271 -0.751860 -2.807726 -2.517578 10.049772 -0.028095 1.151822 -0.418406 10.138112 11.611261 7.218483 7.938811 1.971663 0.758497 1.546526 -4.956827 -6.464645 -0.058016 -0.150917 -0.120821
